<?xml version="1.0" encoding="UTF-8"?>
<svg id="Layer_1" xmlns="http://www.w3.org/2000/svg" version="1.1" xmlns:xlink="http://www.w3.org/1999/xlink" viewBox="0 0 160 160">
  <!-- Generator: Adobe Illustrator 29.2.1, SVG Export Plug-In . SVG Version: 2.1.0 Build 116)  -->
  <defs>
    <style>
      .st0 {
        fill: #fff;
      }

      .st1 {
        fill: url(#radial-gradient1);
      }

      .st2 {
        fill: #1b1464;
      }

      .st3 {
        fill: url(#radial-gradient2);
      }

      .st4 {
        fill: none;
        stroke: url(#radial-gradient);
        stroke-miterlimit: 10;
        stroke-width: 3px;
      }
    </style>
    <radialGradient id="radial-gradient" cx="80" cy="80" fx="80" fy="80" r="64.54" gradientTransform="translate(-514.26 -170.72) rotate(-60) scale(1 8)" gradientUnits="userSpaceOnUse">
      <stop offset=".25" stop-color="#cbe0f4"/>
      <stop offset=".29" stop-color="#c8def3"/>
      <stop offset=".3" stop-color="#cce0f4"/>
      <stop offset=".34" stop-color="#c2dcf2"/>
      <stop offset=".4" stop-color="#a9d2ee"/>
      <stop offset=".47" stop-color="#7fc2e7"/>
      <stop offset=".56" stop-color="#46abdd"/>
      <stop offset=".62" stop-color="#1e9cd7"/>
      <stop offset=".82" stop-color="#0075be"/>
      <stop offset="1" stop-color="#005b97"/>
    </radialGradient>
    <radialGradient id="radial-gradient1" cx="38.04" cy="46.63" fx="38.04" fy="46.63" r="23.67" gradientUnits="userSpaceOnUse">
      <stop offset="0" stop-color="#fff"/>
      <stop offset="0" stop-color="#fcfeff"/>
      <stop offset=".51" stop-color="#76e2ff"/>
      <stop offset=".85" stop-color="#21d0ff"/>
      <stop offset="1" stop-color="#00c9ff"/>
    </radialGradient>
    <radialGradient id="radial-gradient2" cx="123.82" cy="92.63" fx="123.82" fy="92.63" r="23.74" gradientUnits="userSpaceOnUse">
      <stop offset="0" stop-color="#fff"/>
      <stop offset=".03" stop-color="#f1fcff"/>
      <stop offset=".19" stop-color="#b2eeff"/>
      <stop offset=".35" stop-color="#7be3ff"/>
      <stop offset=".5" stop-color="#4fd9ff"/>
      <stop offset=".64" stop-color="#2cd2ff"/>
      <stop offset=".77" stop-color="#14cdff"/>
      <stop offset=".9" stop-color="#05caff"/>
      <stop offset="1" stop-color="#00c9ff"/>
    </radialGradient>
  </defs>
  <rect class="st2" width="160" height="160"/>
  <polygon class="st4" points="138.03 113.87 79.68 147.19 21.65 113.32 21.97 46.13 80.32 12.81 138.35 46.68 138.03 113.87"/>
  <g>
    <polygon class="st1" points="76.99 81.99 43.88 43.85 38.18 43.85 38.18 92.96 45 88.4 44.79 55.13 77.63 92.96 83.67 92.96 82.89 58.19 76.89 50.19 76.99 81.99"/>
    <polygon class="st3" points="117.24 43.85 101.02 64.02 84.7 43.85 78.04 43.85 78.04 46.09 85.08 54.77 85.08 54.74 88.46 58.96 100.43 73.73 101.65 73.73 116.75 54.74 119 88.4 123.82 92.96 123.82 43.85 117.24 43.85"/>
  </g>
  <g>
    <path class="st0" d="M35.86,105.35v-1.24c.5,0,.89-.12,1.16-.37.28-.25.41-.6.41-1.05v-3.79c0-1.13.31-2,.94-2.62.63-.62,1.51-.93,2.66-.93v1.24c-.72,0-1.27.18-1.67.55-.4.37-.59.88-.59,1.54v4.02c0,.84-.25,1.49-.76,1.96-.51.46-1.22.7-2.15.7ZM41.04,114.66c-1.14,0-2.03-.31-2.66-.93-.63-.62-.94-1.49-.94-2.61v-3.8c0-.45-.14-.8-.41-1.05-.28-.25-.66-.37-1.16-.37v-1.24c.93,0,1.64.24,2.15.72.51.48.76,1.16.76,2.05v3.9c0,.67.2,1.18.59,1.55.4.37.95.55,1.67.55v1.24Z"/>
    <path class="st0" d="M47.13,111.15c-.66,0-1.27-.06-1.85-.19-.58-.12-1.12-.31-1.62-.56-.5-.25-.98-.56-1.42-.93l.81-1.06c.57.49,1.19.87,1.87,1.11.68.25,1.41.37,2.21.37,1.16,0,2.06-.23,2.69-.69.63-.46.95-1.1.95-1.93h0c0-.57-.15-1-.46-1.31s-.71-.53-1.21-.69c-.5-.15-1.04-.29-1.62-.4-.54-.11-1.08-.22-1.62-.35-.54-.13-1.04-.31-1.48-.54-.45-.23-.81-.56-1.08-.98-.27-.42-.41-.98-.41-1.68h0c0-1.26.42-2.24,1.25-2.93s2.01-1.04,3.53-1.04c.72,0,1.42.12,2.11.35.69.23,1.37.59,2.04,1.06l-.79,1.05c-.58-.41-1.15-.71-1.71-.91-.56-.2-1.11-.3-1.65-.3-1.1,0-1.95.23-2.56.69-.61.46-.91,1.12-.91,1.96h0c0,.57.17.99.52,1.28.34.29.79.51,1.34.66.55.15,1.13.28,1.74.41.52.11,1.03.23,1.54.37.51.14.97.34,1.39.58.41.25.75.58.99,1.01.25.42.37.97.37,1.64v.02c0,1.24-.43,2.21-1.3,2.89-.87.68-2.08,1.02-3.66,1.02Z"/>
    <path class="st0" d="M58.28,111.15c-1.26,0-2.24-.37-2.93-1.1-.69-.73-1.04-1.76-1.04-3.09v-1.57c0-1.32.35-2.34,1.04-3.06s1.67-1.09,2.93-1.09,2.24.36,2.93,1.09,1.04,1.74,1.04,3.06v1.6c0,1.32-.35,2.35-1.04,3.08-.69.73-1.67,1.09-2.93,1.09ZM58.27,109.91c.84,0,1.49-.26,1.95-.77.46-.51.69-1.23.69-2.16v-1.6c0-.92-.23-1.64-.69-2.14-.46-.51-1.11-.76-1.95-.76s-1.48.25-1.94.76c-.46.51-.69,1.22-.69,2.14v1.6c0,.93.23,1.65.69,2.16.46.51,1.1.77,1.94.77Z"/>
    <path class="st0" d="M64.2,102.54v-1.15h4.81v1.15h-4.81ZM65.22,111.01v-10.94c0-.85.18-1.49.55-1.92s.92-.64,1.67-.64h1.58v1.24h-1.35c-.37,0-.65.11-.83.32-.18.21-.27.54-.27.97v10.96h-1.34Z"/>
    <path class="st0" d="M70.22,102.54v-1.15h4.34v1.15h-4.34ZM73.47,111.06c-.79,0-1.37-.22-1.72-.66-.36-.44-.53-1.07-.53-1.89v-9.93h1.34v9.95c0,.41.09.73.28.95s.46.34.83.34h.91v1.24h-1.09Z"/>
    <path class="st0" d="M79.39,111.01l-3.06-9.63h1.42l2.26,7.8,2.68-7.8h.76l2.68,7.8,2.26-7.8h1.42l-3.06,9.63h-1.15l-2.53-7.21-2.53,7.21h-1.15Z"/>
    <path class="st0" d="M94.94,111.15c-1.13,0-2-.26-2.62-.78s-.93-1.25-.93-2.2.28-1.61.85-2.11,1.37-.75,2.39-.75h3.2l.13,1.24h-3.32c-.62,0-1.1.14-1.43.42-.34.28-.51.68-.51,1.19,0,.54.21.97.64,1.27.42.3,1.02.45,1.79.45.83,0,1.47-.08,1.93-.25s.69-.4.69-.71l.2,1.26c-.19.2-.44.38-.74.52s-.64.25-1.03.32c-.38.07-.8.11-1.25.11ZM97.76,111.01v-6.1c0-.78-.21-1.38-.63-1.81-.42-.43-1.01-.64-1.78-.64-.45,0-.9.07-1.34.22-.44.15-.83.36-1.18.63l-.97-.67c.36-.44.84-.78,1.44-1.03.6-.24,1.26-.37,1.99-.37,1.21,0,2.14.31,2.8.94.66.62.99,1.51.99,2.64v6.19h-1.34Z"/>
    <path class="st0" d="M101.97,111.01v-9.63h1.34v9.63h-1.34ZM107.64,103.11c-.2-.2-.45-.36-.75-.46-.3-.11-.65-.16-1.04-.16-.81,0-1.44.22-1.88.65-.44.43-.66,1.03-.66,1.78l-.2-1.86c.35-.57.81-1.01,1.38-1.34.57-.32,1.2-.48,1.88-.48.44,0,.84.06,1.19.19.36.13.67.31.93.56l-.86,1.11Z"/>
    <path class="st0" d="M113.83,111.15c-1.34,0-2.38-.38-3.12-1.13-.74-.75-1.1-1.81-1.1-3.19v-1.08c0-1.44.35-2.55,1.06-3.33.71-.79,1.71-1.18,2.99-1.18,1.21,0,2.15.39,2.82,1.16.66.77,1,1.87,1,3.28v1.1h-6.96v-1.21h5.71v-.09c0-.95-.22-1.69-.67-2.21-.45-.52-1.08-.78-1.9-.78-.9,0-1.59.27-2.08.83-.49.55-.73,1.33-.73,2.34v1.22c0,.96.26,1.71.78,2.24.52.53,1.25.79,2.2.79.45,0,.89-.09,1.32-.28.44-.19.82-.45,1.17-.79l.91.87c-.47.46-1,.81-1.6,1.06-.59.25-1.19.38-1.8.38Z"/>
    <path class="st0" d="M124.14,105.62c-.93,0-1.65-.23-2.15-.7s-.76-1.12-.76-1.96v-4.3c0-.66-.2-1.17-.59-1.54s-.95-.55-1.67-.55v-1.24c1.14,0,2.03.31,2.66.93.63.62.94,1.49.94,2.62v4.07c0,.45.14.8.41,1.05.27.25.66.37,1.16.37v1.24ZM118.96,114.66v-1.24c.72,0,1.27-.18,1.67-.55s.59-.88.59-1.55v-4.18c0-.88.25-1.56.76-2.04s1.22-.72,2.15-.72v1.24c-.5,0-.89.12-1.16.37-.28.25-.41.6-.41,1.05v4.08c0,1.12-.31,1.99-.94,2.61-.63.62-1.51.93-2.66.93Z"/>
  </g>
</svg>